# xmcd CD database file
#
# Track frame offsets:
#	150
#	30611
#	49141
#	62528
#	73129
#	100893
#	112698
#	125629
#	138154
#	153278
#	167332
#	185660
#	195539
#	207022
#	222487
#	237696
#	249662
#	262320
#
# Disc length: 3682 seconds
#
# Revision: 1
# Processed by: cddbd v1.5.1PL2 Copyright (c) Steve Scherf et al.
# Submitted via: CDex 1.40Beta9
#
DISCID=0b0e6012
DTITLE=Jazz and Blues - Blues By Five CD2
DYEAR=1998
DGENRE=Blues
TTITLE0=Everybodys's Blue - Brownie McGhee and Sonny Terry
TTITLE1=Hoodoo Blues - Lightning Slim
TTITLE2=Chain Gang Special - Brownie McGhee and Sonny Terry
TTITLE3=Nothin but the blues - Lightnin' Hopkins
TTITLE4=Blowin' the fuses - Brownie McGhee and Sonny Terry 
TTITLE5=The Boll Weevil song - Leadbelly
TTITLE6=Right on that shore - Brownie McGhee and Sonny Terry
TTITLE7=Rooster Blues - Lightning Slim
TTITLE8=Pick a bale of cotton - Brownie McGhee and Sonny Terry
TTITLE9=Good morning heartaches - LIghtning Slim
TTITLE10=Red river - Brownie McGhee and Sonny Terry
TTITLE11=King porter stomp - Jelly Roll Morton
TTITLE12=Cornbread Meat and molasses - Brownie McGhee and Sonny Terry
TTITLE13=Wolverine blues - Jelly roll Morton
TTITLE14=It takes a chain gang - Brownie McGhee and Sonny Terry
TTITLE15=Evil hearted worman - Lightnin' Hopkins
TTITLE16=Stackhole - Brownie McGhee and Sonny Terry
TTITLE17=Where did you sleep last night - Leadbelly
EXTD=YEAR: 1998 ID3G: 0
EXTT0=
EXTT1=
EXTT2=
EXTT3=
EXTT4=
EXTT5=
EXTT6=
EXTT7=
EXTT8=
EXTT9=
EXTT10=
EXTT11=
EXTT12=
EXTT13=
EXTT14=
EXTT15=
EXTT16=
EXTT17=
PLAYORDER=
